<?xml version="1.0" encoding="UTF-8" standalone="no"?>
<!DOCTYPE svg PUBLIC "-//W3C//DTD SVG 1.1//EN"
 "http://www.w3.org/Graphics/SVG/1.1/DTD/svg11.dtd">
<!-- Generated by graphviz version 14.1.1 (20251213.1925)
 -->
<!-- Title: InheritanceTree Pages: 1 -->
<svg width="386pt" height="501pt"
 viewBox="0.00 0.00 386.00 501.00" xmlns="http://www.w3.org/2000/svg" xmlns:xlink="http://www.w3.org/1999/xlink">
<g id="graph0" class="graph" transform="scale(1 1) rotate(0) translate(4 496.5)">
<title>InheritanceTree</title>
<polygon fill="white" stroke="none" points="-4,4 -4,-496.5 381.75,-496.5 381.75,4 -4,4"/>
<text xml:space="preserve" text-anchor="middle" x="188.88" y="-7.2" font-family="Times New Roman,serif" font-size="14.00">simple_cairo &#45; Inheritance Hierarchy</text>
<!-- CAIRO_CONTEXT -->
<g id="node1" class="node">
<title>CAIRO_CONTEXT</title>
<path fill="none" stroke="black" d="M130,-60.5C130,-60.5 26.25,-60.5 26.25,-60.5 20.25,-60.5 14.25,-54.5 14.25,-48.5 14.25,-48.5 14.25,-36.5 14.25,-36.5 14.25,-30.5 20.25,-24.5 26.25,-24.5 26.25,-24.5 130,-24.5 130,-24.5 136,-24.5 142,-30.5 142,-36.5 142,-36.5 142,-48.5 142,-48.5 142,-54.5 136,-60.5 130,-60.5"/>
<text xml:space="preserve" text-anchor="middle" x="78.12" y="-37.45" font-family="Times New Roman,serif" font-size="14.00">CAIRO_CONTEXT</text>
</g>
<!-- CAIRO_GRADIENT -->
<g id="node2" class="node">
<title>CAIRO_GRADIENT</title>
<path fill="none" stroke="black" d="M133,-132.5C133,-132.5 23.25,-132.5 23.25,-132.5 17.25,-132.5 11.25,-126.5 11.25,-120.5 11.25,-120.5 11.25,-108.5 11.25,-108.5 11.25,-102.5 17.25,-96.5 23.25,-96.5 23.25,-96.5 133,-96.5 133,-96.5 139,-96.5 145,-102.5 145,-108.5 145,-108.5 145,-120.5 145,-120.5 145,-126.5 139,-132.5 133,-132.5"/>
<text xml:space="preserve" text-anchor="middle" x="78.12" y="-109.45" font-family="Times New Roman,serif" font-size="14.00">CAIRO_GRADIENT</text>
</g>
<!-- CAIRO_PDF_SURFACE -->
<g id="node3" class="node">
<title>CAIRO_PDF_SURFACE</title>
<path fill="none" stroke="black" d="M144.25,-204.5C144.25,-204.5 12,-204.5 12,-204.5 6,-204.5 0,-198.5 0,-192.5 0,-192.5 0,-180.5 0,-180.5 0,-174.5 6,-168.5 12,-168.5 12,-168.5 144.25,-168.5 144.25,-168.5 150.25,-168.5 156.25,-174.5 156.25,-180.5 156.25,-180.5 156.25,-192.5 156.25,-192.5 156.25,-198.5 150.25,-204.5 144.25,-204.5"/>
<text xml:space="preserve" text-anchor="middle" x="78.12" y="-181.45" font-family="Times New Roman,serif" font-size="14.00">CAIRO_PDF_SURFACE</text>
</g>
<!-- CAIRO_SURFACE -->
<g id="node4" class="node">
<title>CAIRO_SURFACE</title>
<path fill="none" stroke="black" d="M128.5,-276.5C128.5,-276.5 27.75,-276.5 27.75,-276.5 21.75,-276.5 15.75,-270.5 15.75,-264.5 15.75,-264.5 15.75,-252.5 15.75,-252.5 15.75,-246.5 21.75,-240.5 27.75,-240.5 27.75,-240.5 128.5,-240.5 128.5,-240.5 134.5,-240.5 140.5,-246.5 140.5,-252.5 140.5,-252.5 140.5,-264.5 140.5,-264.5 140.5,-270.5 134.5,-276.5 128.5,-276.5"/>
<text xml:space="preserve" text-anchor="middle" x="78.12" y="-253.45" font-family="Times New Roman,serif" font-size="14.00">CAIRO_SURFACE</text>
</g>
<!-- SIMPLE_CAIRO -->
<g id="node5" class="node">
<title>SIMPLE_CAIRO</title>
<path fill="none" stroke="black" d="M122.88,-348.5C122.88,-348.5 33.38,-348.5 33.38,-348.5 27.38,-348.5 21.38,-342.5 21.38,-336.5 21.38,-336.5 21.38,-324.5 21.38,-324.5 21.38,-318.5 27.38,-312.5 33.38,-312.5 33.38,-312.5 122.88,-312.5 122.88,-312.5 128.88,-312.5 134.88,-318.5 134.88,-324.5 134.88,-324.5 134.88,-336.5 134.88,-336.5 134.88,-342.5 128.88,-348.5 122.88,-348.5"/>
<text xml:space="preserve" text-anchor="middle" x="78.12" y="-325.45" font-family="Times New Roman,serif" font-size="14.00">SIMPLE_CAIRO</text>
</g>
<!-- LIB_TESTS -->
<g id="node6" class="node">
<title>LIB_TESTS</title>
<path fill="none" stroke="black" d="M108.25,-420.5C108.25,-420.5 48,-420.5 48,-420.5 42,-420.5 36,-414.5 36,-408.5 36,-408.5 36,-396.5 36,-396.5 36,-390.5 42,-384.5 48,-384.5 48,-384.5 108.25,-384.5 108.25,-384.5 114.25,-384.5 120.25,-390.5 120.25,-396.5 120.25,-396.5 120.25,-408.5 120.25,-408.5 120.25,-414.5 114.25,-420.5 108.25,-420.5"/>
<text xml:space="preserve" text-anchor="middle" x="78.12" y="-397.45" font-family="Times New Roman,serif" font-size="14.00">LIB_TESTS</text>
</g>
<!-- EQA_TEST_SET -->
<g id="node7" class="node">
<title>EQA_TEST_SET</title>
<path fill="none" stroke="black" d="M365.75,-420.5C365.75,-420.5 276.25,-420.5 276.25,-420.5 270.25,-420.5 264.25,-414.5 264.25,-408.5 264.25,-408.5 264.25,-396.5 264.25,-396.5 264.25,-390.5 270.25,-384.5 276.25,-384.5 276.25,-384.5 365.75,-384.5 365.75,-384.5 371.75,-384.5 377.75,-390.5 377.75,-396.5 377.75,-396.5 377.75,-408.5 377.75,-408.5 377.75,-414.5 371.75,-420.5 365.75,-420.5"/>
<text xml:space="preserve" text-anchor="middle" x="321" y="-397.45" font-family="Times New Roman,serif" font-size="14.00">EQA_TEST_SET</text>
</g>
<!-- LIB_TESTS&#45;&gt;EQA_TEST_SET -->
<g id="edge1" class="edge">
<title>LIB_TESTS&#45;&gt;EQA_TEST_SET</title>
<path fill="none" stroke="black" d="M120.71,-402.5C120.71,-402.5 252.33,-402.5 252.33,-402.5"/>
<polygon fill="none" stroke="black" points="252.33,-406 262.33,-402.5 252.33,-399 252.33,-406"/>
</g>
<!-- TEST_APP -->
<g id="node8" class="node">
<title>TEST_APP</title>
<path fill="none" stroke="black" d="M106,-492.5C106,-492.5 50.25,-492.5 50.25,-492.5 44.25,-492.5 38.25,-486.5 38.25,-480.5 38.25,-480.5 38.25,-468.5 38.25,-468.5 38.25,-462.5 44.25,-456.5 50.25,-456.5 50.25,-456.5 106,-456.5 106,-456.5 112,-456.5 118,-462.5 118,-468.5 118,-468.5 118,-480.5 118,-480.5 118,-486.5 112,-492.5 106,-492.5"/>
<text xml:space="preserve" text-anchor="middle" x="78.12" y="-469.45" font-family="Times New Roman,serif" font-size="14.00">TEST_APP</text>
</g>
</g>
</svg>
