<?xml version="1.0" encoding="UTF-8" standalone="no"?>
<!DOCTYPE svg PUBLIC "-//W3C//DTD SVG 1.1//EN"
 "http://www.w3.org/Graphics/SVG/1.1/DTD/svg11.dtd">
<!-- Generated by graphviz version 14.1.1 (20251213.1925)
 -->
<!-- Title: Dependencies Pages: 1 -->
<svg width="334pt" height="213pt"
 viewBox="0.00 0.00 334.00 213.00" xmlns="http://www.w3.org/2000/svg" xmlns:xlink="http://www.w3.org/1999/xlink">
<g id="graph0" class="graph" transform="scale(1 1) rotate(0) translate(4 208.5)">
<title>Dependencies</title>
<polygon fill="white" stroke="none" points="-4,4 -4,-208.5 330,-208.5 330,4 -4,4"/>
<text xml:space="preserve" text-anchor="middle" x="163" y="-7.2" font-family="Times New Roman,serif" font-size="14.00">simple_cairo &#45; Dependencies</text>
<!-- simple_cairo -->
<g id="node1" class="node">
<title>simple_cairo</title>
<polygon fill="lightblue" stroke="black" points="86.5,-132.5 0,-132.5 0,-96.5 86.5,-96.5 86.5,-132.5"/>
<text xml:space="preserve" text-anchor="middle" x="43.25" y="-109.45" font-family="Times New Roman,serif" font-size="14.00">simple_cairo</text>
</g>
<!-- simple_testing -->
<g id="node2" class="node">
<title>simple_testing</title>
<polygon fill="lightblue" stroke="black" points="326,-204.5 230.5,-204.5 230.5,-168.5 326,-168.5 326,-204.5"/>
<text xml:space="preserve" text-anchor="middle" x="278.25" y="-181.45" font-family="Times New Roman,serif" font-size="14.00">simple_testing</text>
</g>
<!-- simple_cairo&#45;&gt;simple_testing -->
<g id="edge1" class="edge">
<title>simple_cairo&#45;&gt;simple_testing</title>
<path fill="none" stroke="black" stroke-dasharray="5,2" d="M86.65,-120.5C144.86,-120.5 241,-120.5 241,-120.5 241,-120.5 241,-156.6 241,-156.6"/>
<polygon fill="black" stroke="black" points="237.5,-156.6 241,-166.6 244.5,-156.6 237.5,-156.6"/>
</g>
<!-- base -->
<g id="node3" class="node">
<title>base</title>
<polygon fill="lightgray" stroke="black" points="305.25,-132.5 251.25,-132.5 251.25,-96.5 305.25,-96.5 305.25,-132.5"/>
<text xml:space="preserve" text-anchor="middle" x="278.25" y="-109.45" font-family="Times New Roman,serif" font-size="14.00">base</text>
</g>
<!-- simple_cairo&#45;&gt;base -->
<g id="edge2" class="edge">
<title>simple_cairo&#45;&gt;base</title>
<path fill="none" stroke="black" stroke-dasharray="5,2" d="M86.9,-108.5C86.9,-108.5 239.46,-108.5 239.46,-108.5"/>
<polygon fill="black" stroke="black" points="239.46,-112 249.46,-108.5 239.46,-105 239.46,-112"/>
</g>
<!-- testing -->
<g id="node4" class="node">
<title>testing</title>
<polygon fill="lightgray" stroke="black" points="305.25,-60.5 251.25,-60.5 251.25,-24.5 305.25,-24.5 305.25,-60.5"/>
<text xml:space="preserve" text-anchor="middle" x="278.25" y="-37.45" font-family="Times New Roman,serif" font-size="14.00">testing</text>
</g>
<!-- simple_cairo&#45;&gt;testing -->
<g id="edge3" class="edge">
<title>simple_cairo&#45;&gt;testing</title>
<path fill="none" stroke="black" stroke-dasharray="5,2" d="M43,-96.33C43,-75 43,-42.5 43,-42.5 43,-42.5 239.29,-42.5 239.29,-42.5"/>
<polygon fill="black" stroke="black" points="239.29,-46 249.29,-42.5 239.29,-39 239.29,-46"/>
</g>
</g>
</svg>
